<svg xmlns="http://www.w3.org/2000/svg" viewBox="0 0 42 48" fill="none">
  <path d="M13.6667 20.6661C13.6667 22.5226 14.4042 24.3031 15.7169 25.6158C17.0297 26.9286 18.8102 27.6661 20.6667 27.6661C22.5232 27.6661 24.3037 26.9286 25.6164 25.6158C26.9292 24.3031 27.6667 22.5226 27.6667 20.6661C27.6667 18.8096 26.9292 17.0291 25.6164 15.7163C24.3037 14.4036 22.5232 13.6661 20.6667 13.6661C18.8102 13.6661 17.0297 14.4036 15.7169 15.7163C14.4042 17.0291 13.6667 18.8096 13.6667 20.6661Z" stroke="#EB3300" stroke-width="4" stroke-linecap="round" stroke-linejoin="round"/>
  <path d="M33.8663 33.8657L23.966 43.766C23.091 44.6401 21.9047 45.1312 20.6678 45.1312C19.431 45.1312 18.2447 44.6401 17.3697 43.766L7.46701 33.8657C4.85652 31.255 3.07879 27.9289 2.35861 24.308C1.63843 20.687 2.00815 16.9339 3.42102 13.523C4.83388 10.1122 7.22643 7.19691 10.2961 5.14583C13.3658 3.09476 16.9748 2 20.6667 2C24.3586 2 27.9675 3.09476 31.0372 5.14583C34.1069 7.19691 36.4995 10.1122 37.9123 13.523C39.3252 16.9339 39.6949 20.687 38.9747 24.308C38.2546 27.9289 36.4768 31.255 33.8663 33.8657Z" stroke="#EB3300" stroke-width="4" stroke-linecap="round" stroke-linejoin="round"/>
</svg>
