<svg xmlns="http://www.w3.org/2000/svg" viewBox="0 0 44 44" fill="none">
  <path d="M2 12C2 9.34783 3.05357 6.80429 4.92893 4.92893C6.80429 3.05357 9.34784 2 12 2H32C34.6522 2 37.1957 3.05357 39.0711 4.92893C40.9464 6.80429 42 9.34783 42 12V32C42 34.6522 40.9464 37.1957 39.0711 39.0711C37.1957 40.9464 34.6522 42 32 42H12C9.34784 42 6.80429 40.9464 4.92893 39.0711C3.05357 37.1957 2 34.6522 2 32V12Z" stroke="#EB3300" stroke-width="4" stroke-linecap="round" stroke-linejoin="round"/>
  <path d="M18.6667 17V27L27 22L18.6667 17Z" stroke="#EB3300" stroke-width="4" stroke-linecap="round" stroke-linejoin="round"/>
</svg>
