<svg xmlns="http://www.w3.org/2000/svg" viewBox="0 0 47 47" fill="none">
  <path d="M19.083 27.6667L44.7497 2M44.7497 2L2.7487 17.1667C2.5253 17.269 2.33599 17.4334 2.20327 17.6402C2.07055 17.847 2 18.0876 2 18.3333C2 18.5791 2.07055 18.8196 2.20327 19.0265C2.33599 19.2333 2.5253 19.3976 2.7487 19.5L19.083 27.6667L27.2487 44C27.3511 44.2234 27.5154 44.4127 27.7222 44.5454C27.9291 44.6781 28.1696 44.7487 28.4154 44.7487C28.6611 44.7487 28.9017 44.6781 29.1085 44.5454C29.3153 44.4127 29.4797 44.2234 29.582 44L44.7497 2Z" stroke="#EB3300" stroke-width="4" stroke-linecap="round" stroke-linejoin="round"/>
</svg>
